<mxfile host="Electron" agent="Mozilla/5.0 (Windows NT 10.0; Win64; x64) AppleWebKit/537.36 (KHTML, like Gecko) draw.io/27.0.9 Chrome/134.0.6998.205 Electron/35.4.0 Safari/537.36" version="27.0.9">
  <diagram name="Page-1" id="iJe4NjJ0ZRdjHWJXn1TH">
    <mxGraphModel dx="1042" dy="722" grid="1" gridSize="10" guides="1" tooltips="1" connect="1" arrows="1" fold="1" page="1" pageScale="1" pageWidth="850" pageHeight="1100" math="0" shadow="0">
      <root>
        <mxCell id="0" />
        <mxCell id="1" parent="0" />
        <mxCell id="bhN5duJku3EktUoTar5E-1" value="Data Flow" style="text;html=1;align=center;verticalAlign=middle;whiteSpace=wrap;rounded=0;fillColor=default;fontSize=20;fontStyle=1" parent="1" vertex="1">
          <mxGeometry x="250" y="100" width="270" height="30" as="geometry" />
        </mxCell>
        <mxCell id="bhN5duJku3EktUoTar5E-2" value="" style="rounded=0;whiteSpace=wrap;html=1;fillColor=none;" parent="1" vertex="1">
          <mxGeometry x="10" y="240" width="150" height="340" as="geometry" />
        </mxCell>
        <mxCell id="bhN5duJku3EktUoTar5E-3" value="&lt;b&gt;&lt;font style=&quot;font-size: 15px;&quot;&gt;Sources&lt;/font&gt;&lt;/b&gt;" style="rounded=1;whiteSpace=wrap;html=1;fillColor=default;strokeColor=none;" parent="1" vertex="1">
          <mxGeometry x="20" y="220" width="120" height="40" as="geometry" />
        </mxCell>
        <mxCell id="b8mqs-gp7XXrWuFG3mY2-1" value="" style="image;aspect=fixed;html=1;points=[];align=center;fontSize=12;image=img/lib/azure2/general/Folder_Blank.svg;" parent="1" vertex="1">
          <mxGeometry x="61.52" y="310" width="48.48" height="39.35" as="geometry" />
        </mxCell>
        <mxCell id="b8mqs-gp7XXrWuFG3mY2-2" value="" style="image;aspect=fixed;html=1;points=[];align=center;fontSize=12;image=img/lib/azure2/general/Folder_Blank.svg;" parent="1" vertex="1">
          <mxGeometry x="55.75999999999999" y="474.88" width="46.96" height="38.12" as="geometry" />
        </mxCell>
        <mxCell id="b8mqs-gp7XXrWuFG3mY2-4" value="&lt;b&gt;CRM&lt;/b&gt;" style="text;html=1;align=center;verticalAlign=middle;whiteSpace=wrap;rounded=0;" parent="1" vertex="1">
          <mxGeometry x="55.76" y="360" width="60" height="30" as="geometry" />
        </mxCell>
        <mxCell id="b8mqs-gp7XXrWuFG3mY2-5" value="&lt;b&gt;ERP&lt;/b&gt;" style="text;html=1;align=center;verticalAlign=middle;whiteSpace=wrap;rounded=0;" parent="1" vertex="1">
          <mxGeometry x="49.239999999999995" y="513" width="60" height="30" as="geometry" />
        </mxCell>
        <mxCell id="b8mqs-gp7XXrWuFG3mY2-6" value="" style="rounded=0;whiteSpace=wrap;html=1;fillColor=none;" parent="1" vertex="1">
          <mxGeometry x="220" y="240" width="170" height="340" as="geometry" />
        </mxCell>
        <mxCell id="b8mqs-gp7XXrWuFG3mY2-7" value="&lt;span style=&quot;font-size: 15px;&quot;&gt;&lt;b&gt;&lt;font style=&quot;color: rgb(21, 21, 21);&quot;&gt;Bronze Layer&lt;/font&gt;&lt;/b&gt;&lt;/span&gt;" style="rounded=1;whiteSpace=wrap;html=1;fillColor=#F8973C;strokeColor=none;" parent="1" vertex="1">
          <mxGeometry x="250" y="210" width="110" height="40" as="geometry" />
        </mxCell>
        <mxCell id="6cyA2ADwYiPDuTw-FKnn-10" style="edgeStyle=orthogonalEdgeStyle;rounded=0;orthogonalLoop=1;jettySize=auto;html=1;" parent="1" source="b8mqs-gp7XXrWuFG3mY2-12" target="6cyA2ADwYiPDuTw-FKnn-3" edge="1">
          <mxGeometry relative="1" as="geometry" />
        </mxCell>
        <mxCell id="b8mqs-gp7XXrWuFG3mY2-12" value="&lt;font style=&quot;color: rgb(44, 44, 44);&quot;&gt;&lt;b&gt;crm_sales_details&lt;/b&gt;&lt;/font&gt;" style="rounded=1;whiteSpace=wrap;html=1;fillColor=#FC9E3E;" parent="1" vertex="1">
          <mxGeometry x="250" y="260" width="110" height="40" as="geometry" />
        </mxCell>
        <mxCell id="6cyA2ADwYiPDuTw-FKnn-11" style="edgeStyle=orthogonalEdgeStyle;rounded=0;orthogonalLoop=1;jettySize=auto;html=1;" parent="1" source="b8mqs-gp7XXrWuFG3mY2-16" target="6cyA2ADwYiPDuTw-FKnn-4" edge="1">
          <mxGeometry relative="1" as="geometry" />
        </mxCell>
        <mxCell id="b8mqs-gp7XXrWuFG3mY2-16" value="&lt;font style=&quot;color: rgb(44, 44, 44);&quot;&gt;&lt;b&gt;crm_cust_info&lt;/b&gt;&lt;/font&gt;" style="rounded=1;whiteSpace=wrap;html=1;fillColor=#FC9E3E;" parent="1" vertex="1">
          <mxGeometry x="250" y="307.35" width="110" height="40" as="geometry" />
        </mxCell>
        <mxCell id="6cyA2ADwYiPDuTw-FKnn-12" style="edgeStyle=orthogonalEdgeStyle;rounded=0;orthogonalLoop=1;jettySize=auto;html=1;" parent="1" source="b8mqs-gp7XXrWuFG3mY2-17" target="6cyA2ADwYiPDuTw-FKnn-5" edge="1">
          <mxGeometry relative="1" as="geometry" />
        </mxCell>
        <mxCell id="b8mqs-gp7XXrWuFG3mY2-17" value="&lt;font style=&quot;color: rgb(44, 44, 44);&quot;&gt;&lt;b&gt;crm_prd_info&lt;/b&gt;&lt;/font&gt;" style="rounded=1;whiteSpace=wrap;html=1;fillColor=#FC9E3E;" parent="1" vertex="1">
          <mxGeometry x="250" y="355" width="110" height="40" as="geometry" />
        </mxCell>
        <mxCell id="6cyA2ADwYiPDuTw-FKnn-13" style="edgeStyle=orthogonalEdgeStyle;rounded=0;orthogonalLoop=1;jettySize=auto;html=1;" parent="1" source="b8mqs-gp7XXrWuFG3mY2-18" target="6cyA2ADwYiPDuTw-FKnn-6" edge="1">
          <mxGeometry relative="1" as="geometry" />
        </mxCell>
        <mxCell id="b8mqs-gp7XXrWuFG3mY2-18" value="&lt;font style=&quot;color: rgb(44, 44, 44);&quot;&gt;&lt;b&gt;erp_cust_az12&lt;/b&gt;&lt;/font&gt;" style="rounded=1;whiteSpace=wrap;html=1;fillColor=#FC9E3E;" parent="1" vertex="1">
          <mxGeometry x="250" y="416" width="110" height="40" as="geometry" />
        </mxCell>
        <mxCell id="6cyA2ADwYiPDuTw-FKnn-14" style="edgeStyle=orthogonalEdgeStyle;rounded=0;orthogonalLoop=1;jettySize=auto;html=1;" parent="1" source="b8mqs-gp7XXrWuFG3mY2-19" target="6cyA2ADwYiPDuTw-FKnn-7" edge="1">
          <mxGeometry relative="1" as="geometry" />
        </mxCell>
        <mxCell id="b8mqs-gp7XXrWuFG3mY2-19" value="&lt;font style=&quot;color: rgb(44, 44, 44);&quot;&gt;&lt;b&gt;erp_loc_a101&lt;/b&gt;&lt;/font&gt;" style="rounded=1;whiteSpace=wrap;html=1;fillColor=#FC9E3E;" parent="1" vertex="1">
          <mxGeometry x="251" y="467" width="110" height="40" as="geometry" />
        </mxCell>
        <mxCell id="6cyA2ADwYiPDuTw-FKnn-15" style="edgeStyle=orthogonalEdgeStyle;rounded=0;orthogonalLoop=1;jettySize=auto;html=1;entryX=0;entryY=0.5;entryDx=0;entryDy=0;" parent="1" source="b8mqs-gp7XXrWuFG3mY2-20" target="6cyA2ADwYiPDuTw-FKnn-8" edge="1">
          <mxGeometry relative="1" as="geometry" />
        </mxCell>
        <mxCell id="b8mqs-gp7XXrWuFG3mY2-20" value="&lt;font style=&quot;color: rgb(44, 44, 44);&quot;&gt;&lt;b&gt;erp_px_cat_g1v2&lt;/b&gt;&lt;/font&gt;" style="rounded=1;whiteSpace=wrap;html=1;fillColor=#FC9E3E;" parent="1" vertex="1">
          <mxGeometry x="250" y="519" width="110" height="40" as="geometry" />
        </mxCell>
        <mxCell id="b8mqs-gp7XXrWuFG3mY2-26" value="" style="endArrow=classic;html=1;rounded=0;entryX=0;entryY=0.5;entryDx=0;entryDy=0;exitX=0.983;exitY=0.417;exitDx=0;exitDy=0;exitPerimeter=0;" parent="1" edge="1">
          <mxGeometry width="50" height="50" relative="1" as="geometry">
            <mxPoint x="109.17583999999988" y="331.40895" as="sourcePoint" />
            <mxPoint x="250" y="328.3499999999999" as="targetPoint" />
            <Array as="points" />
          </mxGeometry>
        </mxCell>
        <mxCell id="b8mqs-gp7XXrWuFG3mY2-29" value="" style="strokeWidth=2;html=1;shape=mxgraph.flowchart.annotation_1;align=left;pointerEvents=1;" parent="1" vertex="1">
          <mxGeometry x="200" y="279.68" width="50" height="100" as="geometry" />
        </mxCell>
        <mxCell id="b8mqs-gp7XXrWuFG3mY2-31" value="" style="endArrow=classic;html=1;rounded=0;exitX=0.985;exitY=0.554;exitDx=0;exitDy=0;exitPerimeter=0;" parent="1" edge="1">
          <mxGeometry width="50" height="50" relative="1" as="geometry">
            <mxPoint x="101.01559999999995" y="492.9984800000002" as="sourcePoint" />
            <mxPoint x="250" y="487" as="targetPoint" />
          </mxGeometry>
        </mxCell>
        <mxCell id="b8mqs-gp7XXrWuFG3mY2-32" value="" style="strokeWidth=2;html=1;shape=mxgraph.flowchart.annotation_1;align=left;pointerEvents=1;" parent="1" vertex="1">
          <mxGeometry x="203.99" y="440" width="50" height="100" as="geometry" />
        </mxCell>
        <mxCell id="6cyA2ADwYiPDuTw-FKnn-1" value="" style="rounded=0;whiteSpace=wrap;html=1;fillColor=none;strokeColor=#ACACAC;" parent="1" vertex="1">
          <mxGeometry x="446.01" y="240" width="170" height="340" as="geometry" />
        </mxCell>
        <mxCell id="6cyA2ADwYiPDuTw-FKnn-2" value="&lt;span style=&quot;font-size: 15px;&quot;&gt;&lt;b&gt;&lt;font style=&quot;color: rgb(21, 21, 21);&quot;&gt;Bronze Layer&lt;/font&gt;&lt;/b&gt;&lt;/span&gt;" style="rounded=1;whiteSpace=wrap;html=1;fillColor=#C0C0C0;strokeColor=#ACACAC;" parent="1" vertex="1">
          <mxGeometry x="476.01" y="210" width="110" height="40" as="geometry" />
        </mxCell>
        <mxCell id="6cyA2ADwYiPDuTw-FKnn-3" value="&lt;font style=&quot;color: rgb(44, 44, 44);&quot;&gt;&lt;b&gt;crm_sales_details&lt;/b&gt;&lt;/font&gt;" style="rounded=1;whiteSpace=wrap;html=1;fillColor=#C0C0C0;strokeColor=#ACACAC;" parent="1" vertex="1">
          <mxGeometry x="476.01" y="260" width="110" height="40" as="geometry" />
        </mxCell>
        <mxCell id="6cyA2ADwYiPDuTw-FKnn-4" value="&lt;font style=&quot;color: rgb(44, 44, 44);&quot;&gt;&lt;b&gt;crm_cust_info&lt;/b&gt;&lt;/font&gt;" style="rounded=1;whiteSpace=wrap;html=1;fillColor=#C0C0C0;strokeColor=#ACACAC;" parent="1" vertex="1">
          <mxGeometry x="476.01" y="307.35" width="110" height="40" as="geometry" />
        </mxCell>
        <mxCell id="6cyA2ADwYiPDuTw-FKnn-5" value="&lt;font style=&quot;color: rgb(44, 44, 44);&quot;&gt;&lt;b&gt;crm_prd_info&lt;/b&gt;&lt;/font&gt;" style="rounded=1;whiteSpace=wrap;html=1;fillColor=#C0C0C0;strokeColor=#ACACAC;" parent="1" vertex="1">
          <mxGeometry x="476.01" y="355" width="110" height="40" as="geometry" />
        </mxCell>
        <mxCell id="6cyA2ADwYiPDuTw-FKnn-6" value="&lt;font style=&quot;color: rgb(44, 44, 44);&quot;&gt;&lt;b&gt;erp_cust_az12&lt;/b&gt;&lt;/font&gt;" style="rounded=1;whiteSpace=wrap;html=1;fillColor=#C0C0C0;strokeColor=#ACACAC;" parent="1" vertex="1">
          <mxGeometry x="476.01" y="416" width="110" height="40" as="geometry" />
        </mxCell>
        <mxCell id="6cyA2ADwYiPDuTw-FKnn-7" value="&lt;font style=&quot;color: rgb(44, 44, 44);&quot;&gt;&lt;b&gt;erp_loc_a101&lt;/b&gt;&lt;/font&gt;" style="rounded=1;whiteSpace=wrap;html=1;fillColor=#C0C0C0;strokeColor=#ACACAC;" parent="1" vertex="1">
          <mxGeometry x="477.01" y="467" width="110" height="40" as="geometry" />
        </mxCell>
        <mxCell id="6cyA2ADwYiPDuTw-FKnn-8" value="&lt;font style=&quot;color: rgb(44, 44, 44);&quot;&gt;&lt;b&gt;erp_px_cat_g1v2&lt;/b&gt;&lt;/font&gt;" style="rounded=1;whiteSpace=wrap;html=1;fillColor=#C0C0C0;strokeColor=#ACACAC;" parent="1" vertex="1">
          <mxGeometry x="476.01" y="519" width="110" height="40" as="geometry" />
        </mxCell>
        <mxCell id="Yncc16K6Mo_UVrNen5hh-1" value="" style="rounded=0;whiteSpace=wrap;html=1;fillColor=none;strokeColor=#ACACAC;" vertex="1" parent="1">
          <mxGeometry x="680" y="240" width="170" height="340" as="geometry" />
        </mxCell>
        <mxCell id="Yncc16K6Mo_UVrNen5hh-2" value="&lt;span style=&quot;font-size: 15px;&quot;&gt;&lt;b&gt;&lt;font style=&quot;color: rgb(21, 21, 21);&quot;&gt;Bronze Layer&lt;/font&gt;&lt;/b&gt;&lt;/span&gt;" style="rounded=1;whiteSpace=wrap;html=1;fillColor=#F9D55F;strokeColor=#ACACAC;" vertex="1" parent="1">
          <mxGeometry x="709" y="210" width="110" height="40" as="geometry" />
        </mxCell>
        <mxCell id="Yncc16K6Mo_UVrNen5hh-3" value="&lt;font style=&quot;color: rgb(44, 44, 44);&quot;&gt;&lt;b&gt;fact_sales&lt;/b&gt;&lt;/font&gt;" style="rounded=1;whiteSpace=wrap;html=1;fillColor=#F9D55F;strokeColor=#ACACAC;" vertex="1" parent="1">
          <mxGeometry x="709" y="307.35" width="110" height="40" as="geometry" />
        </mxCell>
        <mxCell id="Yncc16K6Mo_UVrNen5hh-4" value="&lt;font style=&quot;color: rgb(44, 44, 44);&quot;&gt;&lt;b&gt;dim_customers&lt;/b&gt;&lt;/font&gt;" style="rounded=1;whiteSpace=wrap;html=1;fillColor=#F9D55F;strokeColor=#ACACAC;" vertex="1" parent="1">
          <mxGeometry x="710" y="376" width="110" height="40" as="geometry" />
        </mxCell>
        <mxCell id="Yncc16K6Mo_UVrNen5hh-5" value="&lt;font style=&quot;color: rgb(44, 44, 44);&quot;&gt;&lt;b&gt;dim_products&lt;/b&gt;&lt;/font&gt;" style="rounded=1;whiteSpace=wrap;html=1;fillColor=#F9D55F;strokeColor=#ACACAC;" vertex="1" parent="1">
          <mxGeometry x="710" y="446" width="110" height="40" as="geometry" />
        </mxCell>
        <mxCell id="Yncc16K6Mo_UVrNen5hh-16" value="" style="endArrow=classic;html=1;rounded=0;entryX=0;entryY=0.5;entryDx=0;entryDy=0;" edge="1" parent="1" target="Yncc16K6Mo_UVrNen5hh-3">
          <mxGeometry width="50" height="50" relative="1" as="geometry">
            <mxPoint x="586.01" y="290" as="sourcePoint" />
            <mxPoint x="636.01" y="240" as="targetPoint" />
          </mxGeometry>
        </mxCell>
        <mxCell id="Yncc16K6Mo_UVrNen5hh-18" value="" style="endArrow=classic;html=1;rounded=0;entryX=0;entryY=0.75;entryDx=0;entryDy=0;" edge="1" parent="1" target="Yncc16K6Mo_UVrNen5hh-4">
          <mxGeometry width="50" height="50" relative="1" as="geometry">
            <mxPoint x="570" y="430" as="sourcePoint" />
            <mxPoint x="782.99" y="467" as="targetPoint" />
          </mxGeometry>
        </mxCell>
        <mxCell id="Yncc16K6Mo_UVrNen5hh-19" value="" style="endArrow=classic;html=1;rounded=0;entryX=0;entryY=0.75;entryDx=0;entryDy=0;" edge="1" parent="1" target="Yncc16K6Mo_UVrNen5hh-4">
          <mxGeometry width="50" height="50" relative="1" as="geometry">
            <mxPoint x="587.01" y="482" as="sourcePoint" />
            <mxPoint x="800" y="519" as="targetPoint" />
          </mxGeometry>
        </mxCell>
        <mxCell id="Yncc16K6Mo_UVrNen5hh-20" value="" style="endArrow=classic;html=1;rounded=0;entryX=0;entryY=0.5;entryDx=0;entryDy=0;" edge="1" parent="1" target="Yncc16K6Mo_UVrNen5hh-4">
          <mxGeometry width="50" height="50" relative="1" as="geometry">
            <mxPoint x="580" y="370" as="sourcePoint" />
            <mxPoint x="792.99" y="407" as="targetPoint" />
          </mxGeometry>
        </mxCell>
        <mxCell id="Yncc16K6Mo_UVrNen5hh-21" value="" style="endArrow=classic;html=1;rounded=0;entryX=0;entryY=0.5;entryDx=0;entryDy=0;" edge="1" parent="1" target="Yncc16K6Mo_UVrNen5hh-5">
          <mxGeometry width="50" height="50" relative="1" as="geometry">
            <mxPoint x="586.01" y="324.68" as="sourcePoint" />
            <mxPoint x="826.01" y="334.68" as="targetPoint" />
          </mxGeometry>
        </mxCell>
        <mxCell id="Yncc16K6Mo_UVrNen5hh-22" value="" style="endArrow=classic;html=1;rounded=0;entryX=0;entryY=0.75;entryDx=0;entryDy=0;" edge="1" parent="1" target="Yncc16K6Mo_UVrNen5hh-5">
          <mxGeometry width="50" height="50" relative="1" as="geometry">
            <mxPoint x="587.01" y="540" as="sourcePoint" />
            <mxPoint x="800" y="577" as="targetPoint" />
          </mxGeometry>
        </mxCell>
      </root>
    </mxGraphModel>
  </diagram>
</mxfile>
